<svg xmlns="http://www.w3.org/2000/svg" xmlns:xlink="http://www.w3.org/1999/xlink" width="256" height="320" viewBox="0 0 256 320">
<defs><filter id="ink" x="-15%" y="-15%" width="130%" height="130%" color-interpolation-filters="sRGB">
    <feTurbulence type="fractalNoise" baseFrequency="0.03" numOctaves="3" seed="11" result="n"/>
    <feDisplacementMap in="SourceGraphic" in2="n" scale="3.5" xChannelSelector="R" yChannelSelector="G" result="d"/>
    <feMorphology in="d" operator="erode" radius="0.35" result="e"/>
    <feGaussianBlur in="e" stdDeviation="0.35"/>
  </filter>
<filter id="inkFine" x="-15%" y="-15%" width="130%" height="130%" color-interpolation-filters="sRGB">
    <feTurbulence type="fractalNoise" baseFrequency="0.08" numOctaves="3" seed="14" result="n"/>
    <feDisplacementMap in="SourceGraphic" in2="n" scale="1.6" xChannelSelector="R" yChannelSelector="G" result="d"/>
    <feMorphology in="d" operator="erode" radius="0.35" result="e"/>
    <feGaussianBlur in="e" stdDeviation="0.35"/>
  </filter>
<filter id="wash" x="-20%" y="-20%" width="140%" height="140%" color-interpolation-filters="sRGB">
    <feGaussianBlur in="SourceAlpha" stdDeviation="4" result="b"/>
    <feTurbulence type="fractalNoise" baseFrequency="0.02" numOctaves="2" seed="22" result="n"/>
    <feDisplacementMap in="b" in2="n" scale="8" xChannelSelector="R" yChannelSelector="G" result="db"/>
    <feComposite in="db" in2="SourceAlpha" operator="in" result="pool"/>
    <feColorMatrix in="pool" type="matrix" values="0 0 0 0 0.03  0 0 0 0 0.02  0 0 0 0 0.02  0 0 0 0.9 0" result="dark"/>
    <feMerge><feMergeNode in="SourceGraphic"/><feMergeNode in="dark"/></feMerge>
  </filter>
<filter id="paper" x="0" y="0" width="100%" height="100%" color-interpolation-filters="sRGB">
    <feTurbulence type="fractalNoise" baseFrequency="0.9" numOctaves="2" seed="16" result="fine"/>
    <feTurbulence type="fractalNoise" baseFrequency="0.012" numOctaves="4" seed="23" result="fox"/>
    <feColorMatrix in="fine" type="matrix" values="0 0 0 0 0.5  0 0 0 0 0.5  0 0 0 0 0.5  0 0 0 0.35 0" result="grain"/>
    <feColorMatrix in="fox" type="matrix" values="0 0 0 0 0.45  0 0 0 0 0.32  0 0 0 0 0.2  0 0 0 0.5 0" result="stain"/>
    <feBlend in="grain" in2="stain" mode="multiply"/>
  </filter>
<pattern id="hatch" patternUnits="userSpaceOnUse" width="3.2" height="3.2" patternTransform="rotate(-32)">
    <line x1="0" y1="0" x2="0" y2="3.2" stroke="#14100E" stroke-width="1" stroke-linecap="butt"/>
  </pattern>
<pattern id="hatchCross" patternUnits="userSpaceOnUse" width="4.5" height="4.5" patternTransform="rotate(40)">
    <line x1="0" y1="0" x2="0" y2="4.5" stroke="#14100E" stroke-width="0.7" stroke-linecap="butt"/>
  </pattern>
<radialGradient id="rim" cx="0.12" cy="1.05" r="0.95" gradientUnits="objectBoundingBox">
    <stop offset="0" stop-color="#F0902E" stop-opacity="0.95"/>
    <stop offset="0.35" stop-color="#C8560F" stop-opacity="0.55"/>
    <stop offset="0.75" stop-color="#C8560F" stop-opacity="0.08"/>
    <stop offset="1" stop-color="#C8560F" stop-opacity="0"/>
  </radialGradient>
<radialGradient id="warm" cx="0.12" cy="1.05" r="1.1" gradientUnits="objectBoundingBox">
    <stop offset="0" stop-color="#C8BBA6" stop-opacity="0.95"/>
    <stop offset="0.35" stop-color="#4A423C" stop-opacity="0.55"/>
    <stop offset="0.75" stop-color="#4A423C" stop-opacity="0.08"/>
    <stop offset="1" stop-color="#4A423C" stop-opacity="0"/>
  </radialGradient>
<radialGradient id="shadowRamp" cx="0.88" cy="0" r="1.15" gradientUnits="objectBoundingBox"><stop offset="0" stop-color="#fff" stop-opacity="1"/><stop offset="0.45" stop-color="#fff" stop-opacity="0.7"/><stop offset="0.8" stop-color="#fff" stop-opacity="0.15"/><stop offset="1" stop-color="#fff" stop-opacity="0"/></radialGradient>
<clipPath id="body"><path d="M102.43 110.6 C115.07 94 141.22 95.51 153.92 112.17 C166.62 128.84 164.93 167.15 171.68 201.48 C178.43 235.81 187.6 281.39 190.73 299.44 C193.85 317.5 192.17 300.87 188.71 299.95 C185.26 299.03 178.07 294.47 171.87 294.43 C165.67 294.39 161.25 299.55 154.9 299.74 C148.55 299.93 143.86 294.76 137.25 295.47 C130.63 296.17 125.16 303.48 118.82 303.58 C112.47 303.68 109.22 296.75 102.65 296.03 C96.08 295.3 89.89 300.14 82.98 299.61 C76.08 299.08 64.64 310.91 65.01 293.15 C65.37 275.38 78.1 236.18 84.96 202.71 C91.82 169.24 89.79 127.2 102.43 110.6 Z"/><path d="M142.83 134.23 C141.51 136.96 146.6 139.98 148.45 143.46 C150.29 146.95 151.04 149.77 152.89 153.22 C154.75 156.67 156.68 158.83 158.59 162.28 C160.49 165.72 161.6 168.22 163.28 171.99 C164.97 175.77 165.45 181.53 167.78 182.85 C170.12 184.18 175.17 181.96 176.02 179.23 C176.87 176.5 173.79 171.89 172.44 167.97 C171.09 164.05 170.22 161.43 168.66 157.84 C167.09 154.26 165.4 151.98 163.88 148.39 C162.35 144.79 161.85 141.86 160.34 138.23 C158.84 134.6 158.86 129.33 155.65 128.6 C152.43 127.86 144.15 131.51 142.83 134.23 Z"/><path d="M100.17 128.66 C96.97 130.12 97.57 136.11 96.11 140.67 C94.66 145.22 93.4 148.91 92.24 153.5 C91.08 158.08 90.85 161.29 89.79 165.69 C88.73 170.08 87.62 172.98 86.45 177.46 C85.28 181.94 82.39 187.33 83.42 190.12 C84.44 192.92 89.72 194.5 92.04 192.71 C94.35 190.91 94.51 184.71 96.03 180.34 C97.55 175.96 98.91 173.14 100.32 168.85 C101.74 164.56 102.22 161.43 103.73 156.94 C105.24 152.46 106.76 148.85 108.56 144.4 C110.37 139.95 115.12 135.57 113.58 132.68 C112.04 129.8 103.37 127.2 100.17 128.66 Z"/><path d="M102.99 121.79 C94.98 115.97 105.76 99.36 109.17 89.59 C112.59 79.82 115.89 72.49 121.61 68.51 C127.34 64.53 134.92 63.26 140.38 67.87 C145.84 72.49 149.12 83.89 151.4 93.68 C153.68 103.48 161.71 116.15 152.84 121.3 C143.96 126.45 110.99 127.6 102.99 121.79 Z"/><path d="M180.23 300.58 C181.57 289.68 181.83 262.94 182.54 240.98 C183.25 219.02 183.4 202.73 184.07 180.77 C184.75 158.82 185.4 143.19 186.21 121.23 C187.03 99.26 188.93 72.05 188.53 60.98 C188.13 49.91 185.31 49.81 184.03 60.83 C182.76 71.85 182.45 99.11 181.59 121.07 C180.73 143.03 180.05 158.66 179.33 180.62 C178.61 202.57 178.42 218.86 177.67 240.82 C176.92 262.78 174.76 289.46 175.23 300.41 C175.7 311.37 178.89 311.47 180.23 300.58 Z"/></clipPath>
<mask id="shadowMask"><rect width="256" height="320" fill="url(#shadowRamp)"/></mask>
<mask id="lightMask"><rect width="256" height="320" fill="url(#rim)"/></mask>
<mask id="rimSliver"><g fill="#fff"><path d="M102.43 110.6 C115.07 94 141.22 95.51 153.92 112.17 C166.62 128.84 164.93 167.15 171.68 201.48 C178.43 235.81 187.6 281.39 190.73 299.44 C193.85 317.5 192.17 300.87 188.71 299.95 C185.26 299.03 178.07 294.47 171.87 294.43 C165.67 294.39 161.25 299.55 154.9 299.74 C148.55 299.93 143.86 294.76 137.25 295.47 C130.63 296.17 125.16 303.48 118.82 303.58 C112.47 303.68 109.22 296.75 102.65 296.03 C96.08 295.3 89.89 300.14 82.98 299.61 C76.08 299.08 64.64 310.91 65.01 293.15 C65.37 275.38 78.1 236.18 84.96 202.71 C91.82 169.24 89.79 127.2 102.43 110.6 Z"/><path d="M142.83 134.23 C141.51 136.96 146.6 139.98 148.45 143.46 C150.29 146.95 151.04 149.77 152.89 153.22 C154.75 156.67 156.68 158.83 158.59 162.28 C160.49 165.72 161.6 168.22 163.28 171.99 C164.97 175.77 165.45 181.53 167.78 182.85 C170.12 184.18 175.17 181.96 176.02 179.23 C176.87 176.5 173.79 171.89 172.44 167.97 C171.09 164.05 170.22 161.43 168.66 157.84 C167.09 154.26 165.4 151.98 163.88 148.39 C162.35 144.79 161.85 141.86 160.34 138.23 C158.84 134.6 158.86 129.33 155.65 128.6 C152.43 127.86 144.15 131.51 142.83 134.23 Z"/><path d="M100.17 128.66 C96.97 130.12 97.57 136.11 96.11 140.67 C94.66 145.22 93.4 148.91 92.24 153.5 C91.08 158.08 90.85 161.29 89.79 165.69 C88.73 170.08 87.62 172.98 86.45 177.46 C85.28 181.94 82.39 187.33 83.42 190.12 C84.44 192.92 89.72 194.5 92.04 192.71 C94.35 190.91 94.51 184.71 96.03 180.34 C97.55 175.96 98.91 173.14 100.32 168.85 C101.74 164.56 102.22 161.43 103.73 156.94 C105.24 152.46 106.76 148.85 108.56 144.4 C110.37 139.95 115.12 135.57 113.58 132.68 C112.04 129.8 103.37 127.2 100.17 128.66 Z"/><path d="M102.99 121.79 C94.98 115.97 105.76 99.36 109.17 89.59 C112.59 79.82 115.89 72.49 121.61 68.51 C127.34 64.53 134.92 63.26 140.38 67.87 C145.84 72.49 149.12 83.89 151.4 93.68 C153.68 103.48 161.71 116.15 152.84 121.3 C143.96 126.45 110.99 127.6 102.99 121.79 Z"/><path d="M180.23 300.58 C181.57 289.68 181.83 262.94 182.54 240.98 C183.25 219.02 183.4 202.73 184.07 180.77 C184.75 158.82 185.4 143.19 186.21 121.23 C187.03 99.26 188.93 72.05 188.53 60.98 C188.13 49.91 185.31 49.81 184.03 60.83 C182.76 71.85 182.45 99.11 181.59 121.07 C180.73 143.03 180.05 158.66 179.33 180.62 C178.61 202.57 178.42 218.86 177.67 240.82 C176.92 262.78 174.76 289.46 175.23 300.41 C175.7 311.37 178.89 311.47 180.23 300.58 Z"/></g><g fill="#000" transform="translate(2.2 -3.1)"><path d="M102.43 110.6 C115.07 94 141.22 95.51 153.92 112.17 C166.62 128.84 164.93 167.15 171.68 201.48 C178.43 235.81 187.6 281.39 190.73 299.44 C193.85 317.5 192.17 300.87 188.71 299.95 C185.26 299.03 178.07 294.47 171.87 294.43 C165.67 294.39 161.25 299.55 154.9 299.74 C148.55 299.93 143.86 294.76 137.25 295.47 C130.63 296.17 125.16 303.48 118.82 303.58 C112.47 303.68 109.22 296.75 102.65 296.03 C96.08 295.3 89.89 300.14 82.98 299.61 C76.08 299.08 64.64 310.91 65.01 293.15 C65.37 275.38 78.1 236.18 84.96 202.71 C91.82 169.24 89.79 127.2 102.43 110.6 Z"/><path d="M142.83 134.23 C141.51 136.96 146.6 139.98 148.45 143.46 C150.29 146.95 151.04 149.77 152.89 153.22 C154.75 156.67 156.68 158.83 158.59 162.28 C160.49 165.72 161.6 168.22 163.28 171.99 C164.97 175.77 165.45 181.53 167.78 182.85 C170.12 184.18 175.17 181.96 176.02 179.23 C176.87 176.5 173.79 171.89 172.44 167.97 C171.09 164.05 170.22 161.43 168.66 157.84 C167.09 154.26 165.4 151.98 163.88 148.39 C162.35 144.79 161.85 141.86 160.34 138.23 C158.84 134.6 158.86 129.33 155.65 128.6 C152.43 127.86 144.15 131.51 142.83 134.23 Z"/><path d="M100.17 128.66 C96.97 130.12 97.57 136.11 96.11 140.67 C94.66 145.22 93.4 148.91 92.24 153.5 C91.08 158.08 90.85 161.29 89.79 165.69 C88.73 170.08 87.62 172.98 86.45 177.46 C85.28 181.94 82.39 187.33 83.42 190.12 C84.44 192.92 89.72 194.5 92.04 192.71 C94.35 190.91 94.51 184.71 96.03 180.34 C97.55 175.96 98.91 173.14 100.32 168.85 C101.74 164.56 102.22 161.43 103.73 156.94 C105.24 152.46 106.76 148.85 108.56 144.4 C110.37 139.95 115.12 135.57 113.58 132.68 C112.04 129.8 103.37 127.2 100.17 128.66 Z"/><path d="M102.99 121.79 C94.98 115.97 105.76 99.36 109.17 89.59 C112.59 79.82 115.89 72.49 121.61 68.51 C127.34 64.53 134.92 63.26 140.38 67.87 C145.84 72.49 149.12 83.89 151.4 93.68 C153.68 103.48 161.71 116.15 152.84 121.3 C143.96 126.45 110.99 127.6 102.99 121.79 Z"/><path d="M180.23 300.58 C181.57 289.68 181.83 262.94 182.54 240.98 C183.25 219.02 183.4 202.73 184.07 180.77 C184.75 158.82 185.4 143.19 186.21 121.23 C187.03 99.26 188.93 72.05 188.53 60.98 C188.13 49.91 185.31 49.81 184.03 60.83 C182.76 71.85 182.45 99.11 181.59 121.07 C180.73 143.03 180.05 158.66 179.33 180.62 C178.61 202.57 178.42 218.86 177.67 240.82 C176.92 262.78 174.76 289.46 175.23 300.41 C175.7 311.37 178.89 311.47 180.23 300.58 Z"/></g></mask>
<radialGradient id="g187_65"><stop offset="0" stop-color="#5C7A99" stop-opacity="1"/><stop offset="0.35" stop-color="#5C7A99" stop-opacity="0.55"/><stop offset="1" stop-color="#5C7A99" stop-opacity="0"/></radialGradient>
<radialGradient id="g122_97"><stop offset="0" stop-color="#F0902E" stop-opacity="1"/><stop offset="0.35" stop-color="#F0902E" stop-opacity="0.55"/><stop offset="1" stop-color="#F0902E" stop-opacity="0"/></radialGradient>
<radialGradient id="g135_97"><stop offset="0" stop-color="#F0902E" stop-opacity="1"/><stop offset="0.35" stop-color="#F0902E" stop-opacity="0.55"/><stop offset="1" stop-color="#F0902E" stop-opacity="0"/></radialGradient></defs>

<g filter="url(#ink)"><g filter="url(#wash)"><path d="M102.43 110.6 C115.07 94 141.22 95.51 153.92 112.17 C166.62 128.84 164.93 167.15 171.68 201.48 C178.43 235.81 187.6 281.39 190.73 299.44 C193.85 317.5 192.17 300.87 188.71 299.95 C185.26 299.03 178.07 294.47 171.87 294.43 C165.67 294.39 161.25 299.55 154.9 299.74 C148.55 299.93 143.86 294.76 137.25 295.47 C130.63 296.17 125.16 303.48 118.82 303.58 C112.47 303.68 109.22 296.75 102.65 296.03 C96.08 295.3 89.89 300.14 82.98 299.61 C76.08 299.08 64.64 310.91 65.01 293.15 C65.37 275.38 78.1 236.18 84.96 202.71 C91.82 169.24 89.79 127.2 102.43 110.6 Z" fill="#2A2320"/><path d="M142.83 134.23 C141.51 136.96 146.6 139.98 148.45 143.46 C150.29 146.95 151.04 149.77 152.89 153.22 C154.75 156.67 156.68 158.83 158.59 162.28 C160.49 165.72 161.6 168.22 163.28 171.99 C164.97 175.77 165.45 181.53 167.78 182.85 C170.12 184.18 175.17 181.96 176.02 179.23 C176.87 176.5 173.79 171.89 172.44 167.97 C171.09 164.05 170.22 161.43 168.66 157.84 C167.09 154.26 165.4 151.98 163.88 148.39 C162.35 144.79 161.85 141.86 160.34 138.23 C158.84 134.6 158.86 129.33 155.65 128.6 C152.43 127.86 144.15 131.51 142.83 134.23 Z" fill="#2A2320"/><path d="M100.17 128.66 C96.97 130.12 97.57 136.11 96.11 140.67 C94.66 145.22 93.4 148.91 92.24 153.5 C91.08 158.08 90.85 161.29 89.79 165.69 C88.73 170.08 87.62 172.98 86.45 177.46 C85.28 181.94 82.39 187.33 83.42 190.12 C84.44 192.92 89.72 194.5 92.04 192.71 C94.35 190.91 94.51 184.71 96.03 180.34 C97.55 175.96 98.91 173.14 100.32 168.85 C101.74 164.56 102.22 161.43 103.73 156.94 C105.24 152.46 106.76 148.85 108.56 144.4 C110.37 139.95 115.12 135.57 113.58 132.68 C112.04 129.8 103.37 127.2 100.17 128.66 Z" fill="#2A2320"/><path d="M102.99 121.79 C94.98 115.97 105.76 99.36 109.17 89.59 C112.59 79.82 115.89 72.49 121.61 68.51 C127.34 64.53 134.92 63.26 140.38 67.87 C145.84 72.49 149.12 83.89 151.4 93.68 C153.68 103.48 161.71 116.15 152.84 121.3 C143.96 126.45 110.99 127.6 102.99 121.79 Z" fill="#2A2320"/><path d="M180.23 300.58 C181.57 289.68 181.83 262.94 182.54 240.98 C183.25 219.02 183.4 202.73 184.07 180.77 C184.75 158.82 185.4 143.19 186.21 121.23 C187.03 99.26 188.93 72.05 188.53 60.98 C188.13 49.91 185.31 49.81 184.03 60.83 C182.76 71.85 182.45 99.11 181.59 121.07 C180.73 143.03 180.05 158.66 179.33 180.62 C178.61 202.57 178.42 218.86 177.67 240.82 C176.92 262.78 174.76 289.46 175.23 300.41 C175.7 311.37 178.89 311.47 180.23 300.58 Z" fill="#2A2320"/></g></g><g clip-path="url(#body)"><rect width="256" height="320" fill="url(#warm)" opacity="0.85"/></g><g clip-path="url(#body)" mask="url(#shadowMask)"><rect width="256" height="320" fill="#14100E" opacity="0.8"/></g><g clip-path="url(#body)" mask="url(#shadowMask)"><rect width="256" height="320" fill="url(#hatch)" opacity="0.7"/><rect width="256" height="320" fill="url(#hatchCross)" opacity="0.3"/></g><g filter="url(#inkFine)"><path d="M120.0 140.8 L110.0 290.8" fill="none" stroke="#14100E" stroke-width="1.3" stroke-linecap="round" stroke-linejoin="round" opacity="0.92"/></g><g filter="url(#inkFine)"><path d="M138.0 150.8 L150.0 280.8" fill="none" stroke="#14100E" stroke-width="1.1" stroke-linecap="round" stroke-linejoin="round" opacity="0.92"/></g><g clip-path="url(#body)" filter="url(#inkFine)"><path d="M85.86 160.84 C82.64 164.66 84.98 174.82 84.21 183.24 C83.44 191.66 82.6 198.03 81.65 206.77 C80.71 215.5 79.79 222.34 79.05 230.86 C78.32 239.39 78.33 245.01 77.64 253.29 C76.94 261.56 75.85 267.38 75.28 276 C74.71 284.61 72.47 295.62 74.52 300.29 C76.57 304.97 84.01 305.71 86.46 301.49 C88.91 297.26 87.07 285.85 87.88 277.26 C88.7 268.66 89.97 262.86 90.9 254.61 C91.84 246.36 92 240.76 92.98 232.26 C93.96 223.75 95.06 216.93 96.25 208.23 C97.44 199.52 98.45 193.16 99.47 184.77 C100.48 176.37 104.28 166.82 101.78 162.43 C99.29 158.05 89.08 157.03 85.86 160.84 Z" fill="#F0902E" opacity="0.50" mask="url(#lightMask)"/></g><g mask="url(#rimSliver)" filter="url(#inkFine)"><rect width="256" height="320" fill="url(#rim)" opacity="0.9"/></g><circle cx="187" cy="64.79999999999995" r="16" fill="url(#g187_65)"/><circle cx="187" cy="64.79999999999995" r="3.5" fill="#F0902E" opacity="0.95"/><circle cx="122" cy="96.79999999999995" r="6" fill="url(#g122_97)"/><circle cx="122" cy="96.79999999999995" r="1.3" fill="#F0902E" opacity="0.95"/><circle cx="135" cy="96.79999999999995" r="6" fill="url(#g135_97)"/><circle cx="135" cy="96.79999999999995" r="1.3" fill="#F0902E" opacity="0.95"/><g clip-path="url(#body)" style="mix-blend-mode:multiply"><rect width="256" height="320" filter="url(#paper)" opacity="0.5"/></g>
</svg>